<?xml version="1.0" encoding="UTF-8"?>
<svg id="_レイヤー_1" data-name="レイヤー 1" xmlns="http://www.w3.org/2000/svg" width="464.26mm" height="169.33mm" viewBox="0 0 1316 480">
  <defs>
    <style>
      .cls-1 {
        fill: #5a5d5e;
      }

      .cls-2 {
        fill: #ea9a72;
      }

      .cls-3 {
        fill: #ce4959;
      }

      .cls-4 {
        fill: none;
      }
    </style>
  </defs>
  <rect class="cls-1" width="1316" height="480"/>
  <path class="cls-3" d="M201.36,206.33c-4.35,2.35-8.61,4.9-13.07,7.04-56.86,27.23-123-5.64-135.36-67.65-9.95-49.9,21.01-98.12,68.37-110.32,59.26-15.27,111.2,22.79,119.67,77.18,1.14,7.32,1.06,7.34,8.59,7.34,48.08,0,96.17,0,144.25,0,1.38,0,2.76,0,4.14,0,3.87,.03,7.68,.18,9.68,4.38,2.12,4.44-.43,7.5-3,10.63-40.13,48.82-80.27,97.64-120.25,146.58-1.77,2.16-2.94,5.49-2.96,8.29-.22,26.53-.07,53.07-.2,79.61-.02,4.01,.83,5.71,5.26,6.9,21.04,5.66,42.1,11.41,62.72,18.4,7.7,2.61,14.78,8.03,21.09,13.4,3.26,2.77,5,8.07,6,12.54,1.02,4.55-2.07,7.29-6.86,7.68-1.54,.12-3.1,.06-4.65,.06-60.49,0-120.98,0-181.48,0-1.72,0-3.45,.04-5.17-.1-5.59-.47-8.35-5.01-6.61-10.82,2.27-7.59,7.54-13.14,14.24-16.28,12.57-5.9,25.44-11.36,38.61-15.7,12.37-4.07,25.26-6.57,37.99-9.49,3-.69,3.9-1.93,3.89-4.84-.07-28.09-.01-56.17-.09-84.26,0-1.4-.54-3.09-1.42-4.16-20.63-25.16-41.34-50.26-62.05-75.36-.32-.38-.8-.63-1.32-1.02Zm-49.4-82.61c3.1-2.26,4.55-3.49,6.16-4.45,7.05-4.22,13.9-8.88,21.33-12.28,2.91-1.34,7.72-.9,10.63,.66,4.93,2.63,3.64,7.38,.55,11.76h34.05c-1.1-26.95-22.13-59.38-57.64-68.25-38.96-9.72-75.61,8.21-92.54,44.13-14.82,31.44-4.36,72.68,22.99,94.19,30.59,24.07,72.19,19.69,93.15,3-14.6-17.69-29.19-35.37-44.31-53.68-1.82,5.41-2.83,10-4.86,14.1-3.32,6.71-6.98,13.32-11.2,19.48-1.06,1.54-5.29,2.33-7.18,1.48-1.91-.86-3.43-4.06-3.8-6.44-.36-2.34,.35-5.29,1.61-7.35,3.48-5.7,7.33-11.21,11.37-16.54,2.74-3.61,6.05-6.79,9.98-11.13-8.66,0-16.04,.55-23.28-.17-6.03-.6-12.06-2.28-17.81-4.26-3.1-1.07-4.85-4.67-3.13-7.73,1.4-2.5,4.16-4.95,6.84-5.81,2.71-.88,6.24-.36,9.1,.54,8.61,2.71,17.07,5.9,26.39,9.19,0-2.05,.32-4.1-.06-6.01-1.8-9.06-4.32-18.02-5.53-27.15-.86-6.48,2.48-10.41,7.1-10.78,4.21-.33,7.91,3.63,8.97,9.64,.09,.51,.13,1.03,.12,1.54-.19,8.39-.49,16.78-.53,25.18,0,2.04,.85,4.08,1.54,7.13Zm199.72,51.51H196.1c26.22,31.94,51.78,63.08,77.78,94.76,26.13-31.83,51.64-62.9,77.81-94.76Zm32.94-39.75H163.15c6.94,8.35,13.1,15.89,19.46,23.26,.7,.82,2.52,.94,3.82,.94,58.22,.04,116.44,.05,174.66-.02,1.55,0,3.65-.48,4.57-1.54,6.19-7.1,12.14-14.43,18.96-22.64ZM196.54,412.43c.13,.34,.25,.68,.38,1.02h153.77c-1.42-1.98-3.11-2.97-4.89-3.77-18.59-8.45-38.36-13.03-58.13-17.51-5.47-1.24-11.39-2.87-16.7-1.95-22.71,3.93-45.12,9.32-66.48,18.3-2.72,1.14-5.31,2.61-7.95,3.92Z"/>
  <path class="cls-4" d="M452.21,139.57c-.66-2.95-1.49-4.93-1.49-6.9,.03-8.12,.33-16.23,.51-24.35,.01-.5-.03-1-.12-1.49-1.03-5.81-4.61-9.64-8.68-9.32-4.47,.36-7.7,4.16-6.87,10.42,1.17,8.83,3.61,17.49,5.34,26.26,.37,1.85,.05,3.83,.05,5.81-9.02-3.18-17.2-6.27-25.52-8.89-2.77-.87-6.18-1.38-8.81-.53-2.59,.84-5.25,3.21-6.61,5.62-1.66,2.95,.03,6.44,3.03,7.47,5.57,1.92,11.39,3.55,17.23,4.12,7.01,.69,14.14,.16,22.52,.16-3.8,4.2-7,7.27-9.65,10.76-3.91,5.15-7.62,10.48-10.99,16-1.22,1.99-1.91,4.85-1.56,7.11,.36,2.3,1.83,5.4,3.67,6.22,1.82,.82,5.92,.06,6.95-1.43,4.08-5.96,7.63-12.35,10.84-18.84,1.96-3.96,2.94-8.41,4.7-13.64,14.62,17.72,28.74,34.81,42.86,51.92-20.28,16.14-60.5,20.37-90.09-2.9-26.45-20.81-36.56-60.7-22.23-91.1,16.37-34.74,51.82-52.08,89.5-42.68,34.35,8.57,54.68,39.94,55.75,66.01h-32.93c2.99-4.23,4.24-8.83-.53-11.37-2.82-1.5-7.47-1.93-10.29-.64-7.18,3.29-13.82,7.8-20.63,11.88-1.56,.93-2.96,2.12-5.95,4.31Z"/>
  <path class="cls-4" d="M645.38,189.39c-25.3,30.82-49.98,60.87-75.25,91.65-25.15-30.64-49.87-60.76-75.23-91.65h150.48Z"/>
  <path class="cls-4" d="M677.23,150.95c-6.6,7.94-12.35,15.03-18.34,21.9-.89,1.02-2.92,1.49-4.42,1.49-56.31,.07-112.62,.07-168.93,.02-1.26,0-3.01-.12-3.69-.91-6.15-7.13-12.11-14.42-18.82-22.5h214.2Z"/>
  <path class="cls-4" d="M495.32,418.81c2.56-1.27,5.06-2.68,7.69-3.79,20.66-8.69,42.33-13.9,64.3-17.7,5.13-.89,10.87,.69,16.15,1.89,19.13,4.33,38.25,8.76,56.23,16.93,1.72,.78,3.36,1.74,4.73,3.65h-148.73c-.12-.33-.24-.66-.37-.99Z"/>
  <g>
    <path class="cls-2" d="M652.32,172.38c0,18.39-5.15,34.68-15.44,48.87-9.1,12.39-20.49,21.29-34.18,26.68,2.9,4.5,10.04,13.94,21.44,28.33,5.7,6.6,14.39,15.29,26.08,26.08-4.7,1.7-15.04,6-31.03,12.89-11.19,5.1-21.74,10.09-31.63,14.99-2.9-3.6-9.34-12.89-19.34-27.88-4.6-7.59-11.34-20.39-20.24-38.38h-.3l-1.5,52.47h-84.4c-1.1-21.79-2.65-57.71-4.65-107.78-.9-29.48-2.95-70.31-6.15-122.47,27.48-2.9,52.56-4.35,75.25-4.35,84.04,0,126.07,30.18,126.07,90.54Zm-68.06,32.38c0-9.49-4-16.29-11.99-20.39-5.9-3-13.29-4.3-22.19-3.9l-.9,51.27c8.29,0,15.69-1.85,22.19-5.55,8.59-4.8,12.89-11.94,12.89-21.44Z"/>
    <path class="cls-2" d="M863.99,86.18l-3.45,96.99c-1,27.68-1.5,69.56-1.5,125.62-25.58,9.19-51.67,13.79-78.25,13.79-32.78,0-57.71-6.54-74.8-19.64-14.49-11.09-24.73-28.38-30.73-51.87-3.5-13.49-6.8-38.18-9.89-74.05-3-33.18-4.85-63.46-5.55-90.84h96.69c-.5,13.19-1.1,34.68-1.8,64.46-.3,16.59-.2,40.13,.3,70.6,.1,23.19,2.1,38.83,6,46.92,4.1,8.6,12.29,12.89,24.58,12.89,3.5,0,7.39-1,11.69-3,0-20.59-.6-53.31-1.8-98.19-1-22.49-2.85-53.72-5.55-93.69h74.05Z"/>
    <path class="cls-2" d="M1081.05,203.11c0,36.08-11.19,64.46-33.58,85.15-23.08,21.49-55.61,32.23-97.59,32.23-26.98,0-47.82-1.35-62.51-4.05l-4.05-111.38c-1.3-28.58-3.65-68-7.05-118.27,21.68-3.1,44.32-4.65,67.91-4.65,42.07,0,75,9.8,98.79,29.38,25.38,20.99,38.08,51.52,38.08,91.59Zm-61.46,18.44c0-14.69-4.75-25.53-14.24-32.53-7.9-5.79-17.99-8.44-30.28-7.95l-2.1,93.99c12.79-.8,23.23-4.95,31.33-12.44,10.19-9.29,15.29-22.98,15.29-41.07Z"/>
    <path class="cls-2" d="M1249.99,86.18l-6.44,94.89c-3.7-.6-11.7-1.65-23.99-3.15-8.4-.8-17.59-1.3-27.58-1.5l-2.25,28.63c10.99,.3,28.93,.05,53.82-.75-1.1,3.7-2.85,10.59-5.25,20.69-1.4,6.1-2.65,13.14-3.75,21.14-2.9-.7-10.14-1.6-21.73-2.7-5.4-.3-13.4-.4-23.99-.3l-1.5,33.43c7.5-.1,21.29-.75,41.37-1.95,3.8-.3,10.05-1.5,18.74-3.6-.8,3.1-2.65,10.54-5.55,22.34-1.4,6.1-3.1,13.79-5.1,23.08h-134.16l-4.35-117.52c-.8-26.88-2.75-64.46-5.85-112.73h157.55Z"/>
  </g>
  <g>
    <path class="cls-2" d="M499.31,380.17c-1.38,14.93-5.97,26.3-13.78,34.1-5.74,5.74-10.57,9.53-14.47,11.37l-4.48-4.82c5.74-2.98,10.45-6.31,14.12-9.99,7.58-7.58,11.83-17.79,12.75-30.66h-24.8v-5.51h24.8v-18.95l6.55,.69c.91,.46,.69,1.15-.69,2.07v16.19h27.9c-.46,13.78-1.15,23.89-2.07,30.32-1.15,8.27-2.76,13.43-4.82,15.5-1.84,1.84-4.82,2.76-8.96,2.76-1.61,0-4.37-.23-8.27-.69l-1.03-6.54c3.9,.69,7,1.03,9.3,1.03s3.79-.34,4.48-1.03c1.38-1.38,2.41-4.13,3.1-8.27,1.38-8.04,2.18-17.22,2.41-27.56h-22.05Z"/>
    <path class="cls-2" d="M617.47,381.89c.46,.69,.11,1.15-1.03,1.38-4.13,14.47-9.42,24.92-15.85,31.35-5.51,5.51-13.78,9.87-24.8,13.09l-4.48-5.51c11.02-2.29,19.52-6.43,25.49-12.4,5.51-5.51,9.64-13.66,12.4-24.46h-52.36v-5.51h55.47l1.72-.69,3.45,2.76Zm-8.96-21.36v5.51h-44.78v-5.51h44.78Z"/>
    <path class="cls-2" d="M684.64,355.71c.69,.23,.46,.92-.69,2.07l.34,15.85h26.87v5.51h-26.87l.69,39.27c0,2.99-.69,5.17-2.07,6.55-1.38,1.38-3.45,2.07-6.2,2.07h-7.58l-1.72-5.51h7.58c1.38,0,2.41-.34,3.1-1.03,.69-.69,1.03-1.6,1.03-2.76l-.34-32.38c-4.13,6.43-8.61,12.06-13.44,16.88-6.66,6.66-13.55,12.18-20.67,16.54l-5.17-4.48c9.18-5.28,16.3-10.45,21.36-15.5,5.74-5.74,11.02-12.28,15.85-19.64h-34.79v-5.51h36.52l-.69-18.26,6.89,.34Z"/>
    <path class="cls-2" d="M797.29,375v5.51h-17.91c-2.3,18.14-8.73,32.5-19.29,43.06-1.84,1.84-3.56,3.45-5.17,4.82l-5.86-3.45c2.29-1.61,4.48-3.45,6.55-5.51,9.87-9.87,15.73-22.85,17.57-38.93h-25.49c-3.91,8.5-8.16,14.81-12.75,18.95l-5.51-2.76c10.1-9.41,16.88-22.96,20.32-40.65l6.2,2.41c.92,.46,.57,1.03-1.03,1.72-1.15,4.82-2.76,9.76-4.82,14.81h47.2Z"/>
    <path class="cls-2" d="M843.46,375c.69,.69,.34,1.26-1.03,1.72-4.6,16.31-11.6,29.86-21.02,40.65l-5.51-3.45c10.56-12.86,17.45-26.64,20.67-41.34l6.89,2.41Zm44.78,37.89l-6.2,3.44c-5.97-14.93-14.24-28.59-24.8-40.99l5.51-3.1c11.48,13.09,19.98,26.64,25.49,40.65Zm-5.17-37.89l-4.13,3.1c-2.53-3.9-5.97-7.69-10.34-11.37l4.13-2.76c4.82,4.13,8.27,7.81,10.34,11.02Zm8.61-6.2l-4.13,3.1c-3.22-4.36-6.78-8.04-10.68-11.02l4.13-2.76c3.9,2.76,7.46,6.32,10.68,10.68Z"/>
    <path class="cls-2" d="M976.77,389.13v5.51h-73.03v-5.51h73.03Z"/>
    <path class="cls-2" d="M1043.61,361.22c-7.58,8.96-15.16,17.57-22.74,25.84,5.05-1.83,9.87-2.76,14.47-2.76,6.66,0,12.06,2.07,16.19,6.2,3.67,3.68,5.51,8.5,5.51,14.47s-2.07,11.02-6.2,15.16c-4.82,4.82-11.6,7.23-20.33,7.23-6.89,0-12.06-1.72-15.5-5.17-2.76-2.76-4.13-5.97-4.13-9.65,0-2.52,.92-4.7,2.76-6.55,2.07-2.07,4.59-3.1,7.58-3.1,3.67,0,6.89,1.38,9.65,4.13,3.9,3.91,6.08,8.73,6.55,14.47,3.67-.91,6.55-2.41,8.61-4.48,3.45-3.45,5.17-7.46,5.17-12.06s-1.38-8.27-4.13-11.02c-3.22-3.21-7.35-4.82-12.4-4.82-9.19,0-17.69,3.91-25.49,11.71-2.3,2.3-4.48,4.71-6.55,7.24l-5.51-4.82c10.56-8.72,22.62-21.58,36.17-38.58-7.58,.92-15.28,1.72-23.08,2.41l-2.41-6.2c12.63,0,23.65-.91,33.07-2.76l2.76,3.1Zm-25.84,48.23c-1.15,1.15-1.72,2.3-1.72,3.45,0,2.07,.91,4.02,2.76,5.86,2.53,2.53,6.89,3.79,13.09,3.79-.69-5.28-2.07-8.96-4.13-11.02-2.3-2.29-4.25-3.45-5.86-3.45-1.84,0-3.22,.46-4.13,1.38Z"/>
    <path class="cls-2" d="M1153.15,389.13v5.51h-73.03v-5.51h73.03Z"/>
    <path class="cls-2" d="M1194.49,355.37h6.89c1.15,.23,.92,.92-.69,2.07v14.81c0,5.51,.46,10.22,1.38,14.12,8.04-2.98,16.19-5.86,24.46-8.61l3.1,6.55c-11.49,2.76-20.67,5.51-27.56,8.27-6.2,2.53-11.14,5.63-14.81,9.3-2.07,2.07-3.1,4.48-3.1,7.23,0,2.53,.8,4.6,2.41,6.2,2.76,2.76,9.65,4.13,20.67,4.13,5.51,0,12.86-.46,22.05-1.38v6.55c-5.05,.46-12.18,.69-21.36,.69-13.32,0-21.94-1.95-25.84-5.86-2.53-2.52-3.79-5.51-3.79-8.96,0-4.82,1.72-8.96,5.17-12.4s8.04-6.55,13.78-9.3c-.92-3.67-1.61-9.87-2.07-18.6l-.69-14.81Zm38.58,17.22l-3.79,3.44c-2.53-3.44-5.86-7-9.99-10.68l3.45-3.1c3.9,3.22,7.35,6.66,10.34,10.34Zm-2.41-16.19c4.13,3.22,7.58,6.55,10.34,9.99l-3.79,3.44c-2.99-3.67-6.32-7.12-9.99-10.33l3.44-3.1Z"/>
  </g>
</svg>